<svg width="48" height="48" viewBox="0 0 48 48" fill="none" xmlns="http://www.w3.org/2000/svg">
<path d="M0 8C0 3.58172 3.57587 0 7.98693 0H39.0131C43.4241 0 47 3.58172 47 8V40C47 44.4183 43.4241 48 39.0131 48H7.98693C3.57587 48 0 44.4183 0 40V8Z" fill="#0077B5"/>
<path d="M33.0835 41.2523H40.1609V26.955C40.1609 19.8939 35.8934 17.4855 31.9442 17.4855C28.2926 17.4855 25.812 19.9151 25.1271 21.3382V18.1352H18.3208V41.2523H25.3981V28.719C25.3981 25.3772 27.4567 23.752 29.5568 23.752C31.5431 23.752 33.0835 24.9009 33.0835 28.6262V41.2523Z" fill="white"/>
<path d="M6.4502 10.7374C6.4502 13.1508 8.27699 14.9145 10.5304 14.9145C12.7841 14.9145 14.6109 13.1508 14.6109 10.7374C14.6109 8.32428 12.7841 6.55859 10.5304 6.55859C8.27699 6.55859 6.4502 8.32428 6.4502 10.7374Z" fill="white"/>
<path d="M6.99189 41.2344H14.0689V18.1174H6.99189V41.2344Z" fill="white"/>
</svg>
